<svg xmlns="http://www.w3.org/2000/svg" width="3012.000000pt" height="382.000000pt" viewBox="0 0 3012.000000 382.000000" preserveAspectRatio="xMidYMid meet"><g transform="translate(0.000000,382.000000) scale(0.100000,-0.100000)" fill="#000000" stroke="none"><path d="M17035 3464 c-497 -54 -929 -349 -1145 -782 -90 -181 -132 -368 -133 -582 0 -356 124 -664 371 -922 169 -176 360 -298 584 -373 493 -164 1151 -51 1592 274 l56 42 0 449 0 450 -620 0 -620 0 0 -95 0 -95 510 0 510 0 0 -300 0 -299 -42 -29 c-265 -180 -571 -272 -904 -272 -227 0 -374 34 -569 130 -336 167 -576 491 -636 860 -15 94 -12 292 6 386 69 361 322 684 657 839 181 83 331 115 543 115 342 0 655 -106 879 -297 l40 -33 60 66 c83 92 84 92 50 120 -202 170 -453 282 -735 329 -92 16 -375 27 -454 19z"></path><path d="M22660 3464 c-221 -41 -337 -77 -483 -151 -391 -200 -660 -551 -744 -971 -27 -135 -24 -377 6 -512 125 -563 574 -980 1162 -1081 157 -27 398 -22 551 10 266 57 503 183 699 369 194 184 312 386 382 652 28 108 30 127 31 305 1 204 -10 284 -60 434 -113 338 -374 636 -702 800 -94 47 -250 101 -362 126 -73 16 -421 30 -480 19z m393 -219 c171 -30 348 -101 488 -196 164 -111 337 -319 415 -499 131 -302 122 -664 -23 -955 -110 -219 -314 -421 -542 -535 -83 -41 -246 -94 -341 -111 -97 -16 -315 -17 -410 0 -510 89 -912 485 -990 973 -18 109 -8 350 18 448 119 449 490 790 953 874 102 19 327 19 432 1z"></path><path d="M510 2100 l0 -1340 340 0 340 0 2 606 3 607 345 -448 c190 -247 352 -457 360 -468 15 -18 36 8 375 448 l360 467 3 -606 2 -606 340 0 340 0 0 1340 0 1340 -164 -2 -165 -3 -533 -695 c-293 -382 -538 -695 -543 -694 -6 0 -250 313 -543 695 l-533 694 -165 3 -164 2 0 -1340z"></path><path d="M3780 3155 l0 -285 1158 2 1157 3 3 283 2 282 -1160 0 -1160 0 0 -285z"></path><path d="M6263 3433 c3 -5 230 -403 506 -885 l501 -877 0 -456 0 -455 340 0 340 0 0 452 0 453 244 425 c134 234 363 633 509 888 l266 462 -384 0 -383 0 -293 -525 c-196 -354 -295 -522 -301 -513 -4 7 -137 244 -295 526 l-287 512 -383 0 c-212 0 -382 -3 -380 -7z"></path><path d="M9190 3155 l0 -285 1155 0 1155 0 0 285 0 285 -1155 0 -1155 0 0 -285z"></path><path d="M11910 2100 l0 -1340 335 0 335 0 0 310 0 310 233 0 233 0 229 -310 230 -309 404 -1 c384 0 403 1 389 18 -26 29 -564 706 -571 718 -4 8 22 30 69 59 226 141 363 354 415 645 22 121 17 395 -9 507 -97 421 -384 665 -847 722 -57 7 -337 11 -767 11 l-678 0 0 -1340z m1321 743 c190 -71 289 -225 289 -451 0 -230 -128 -388 -361 -448 -48 -12 -129 -18 -321 -21 l-258 -5 0 477 0 477 298 -4 c271 -4 302 -6 353 -25z"></path><path d="M18950 2101 l0 -1341 110 0 110 0 0 440 0 440 429 0 c235 0 448 3 473 6 l45 6 328 -446 328 -446 129 0 c101 0 128 3 122 13 -5 6 -161 216 -347 465 -187 249 -338 454 -336 456 2 2 29 11 59 21 204 66 376 210 464 388 77 156 90 218 90 457 0 196 -1 209 -27 295 -94 302 -296 483 -622 556 -97 22 -121 23 -727 26 l-628 4 0 -1340z m1290 1120 c136 -35 223 -83 310 -170 122 -122 175 -252 187 -456 19 -346 -147 -610 -448 -710 -153 -51 -203 -56 -676 -62 l-443 -6 0 717 0 717 493 -4 c468 -3 496 -5 577 -26z"></path><path d="M24780 2573 c0 -521 4 -896 10 -938 57 -400 285 -699 635 -830 243 -92 604 -100 854 -19 203 66 362 177 490 343 63 81 146 260 178 381 l27 105 4 913 3 912 -106 0 -105 0 0 -837 c0 -504 -4 -866 -10 -908 -31 -215 -104 -376 -233 -511 -112 -119 -240 -188 -422 -230 -99 -23 -327 -25 -430 -5 -380 75 -616 336 -675 746 -6 42 -10 401 -10 908 l0 837 -105 0 -105 0 0 -867z"></path><path d="M27690 2100 l0 -1340 105 0 105 0 0 440 0 440 436 0 c343 0 459 3 541 16 349 51 582 200 704 450 92 190 120 448 73 683 -75 367 -342 593 -759 641 -51 5 -331 10 -647 10 l-558 0 0 -1340z m1243 1126 c260 -62 427 -216 493 -456 26 -92 26 -348 0 -439 -72 -261 -254 -418 -556 -482 -98 -20 -133 -22 -535 -23 l-430 -1 -3 713 -2 714 482 -5 c402 -4 494 -7 551 -21z"></path><path d="M4010 2100 l0 -280 930 0 930 0 -2 278 -3 277 -927 3 -928 2 0 -280z"></path><path d="M9417 2373 c-4 -3 -7 -129 -7 -280 l0 -273 930 0 930 0 0 280 0 280 -923 0 c-508 0 -927 -3 -930 -7z"></path><path d="M3760 1045 l0 -285 1175 0 1175 0 0 285 0 285 -1175 0 -1175 0 0 -285z"></path><path d="M9170 1045 l0 -285 1175 0 1175 0 0 285 0 285 -1175 0 -1175 0 0 -285z"></path></g></svg>